<?xml version="1.0" encoding="UTF-8" ?>
<!DOCTYPE svg PUBLIC "-//W3C//DTD SVG 1.1//EN" "http://www.w3.org/Graphics/SVG/1.1/DTD/svg11.dtd">
<svg width="512pt" height="512pt" viewBox="0 0 512 512" version="1.1" xmlns="http://www.w3.org/2000/svg">
<g id="#000000ff">
<path fill="#000000" opacity="1.00" d=" M 34.56 40.02 C 34.46 28.16 45.16 17.69 57.00 17.96 C 159.32 17.90 261.66 17.94 363.99 17.94 C 371.29 17.75 378.58 21.25 382.83 27.22 C 386.01 31.45 387.32 36.81 387.18 42.05 C 387.14 80.23 387.20 118.42 387.15 156.60 C 393.33 156.88 400.13 156.53 405.03 152.25 C 408.99 149.32 410.66 144.60 412.15 140.13 C 413.13 136.95 417.39 136.27 419.80 138.26 C 427.51 143.71 436.26 148.27 441.84 156.15 C 449.38 166.41 451.53 180.33 447.51 192.40 C 445.37 199.19 441.13 205.12 436.05 210.04 C 434.29 211.99 432.00 213.61 430.81 215.98 C 430.39 223.48 430.82 231.00 430.63 238.51 C 437.44 238.84 444.52 240.55 449.64 245.30 C 458.49 253.00 460.32 267.20 454.05 277.03 C 448.79 285.58 438.30 288.80 428.76 288.89 C 423.93 309.22 410.39 327.25 392.09 337.35 C 392.04 342.80 392.06 348.25 392.06 353.70 C 416.08 358.13 440.09 362.59 464.08 367.18 C 483.84 371.10 499.30 389.75 499.48 409.90 C 499.63 435.60 499.47 461.29 499.56 486.99 C 499.55 489.21 499.58 492.05 497.32 493.29 C 494.21 495.39 489.29 493.07 489.58 489.14 C 489.42 462.78 489.65 436.40 489.48 410.03 C 489.28 394.42 477.29 379.99 461.97 376.96 C 438.73 372.49 415.43 368.30 392.17 363.89 C 391.51 372.27 388.92 380.81 382.99 387.01 C 369.19 401.96 342.76 401.96 328.91 387.08 C 322.93 380.89 320.28 372.32 319.66 363.90 C 296.80 368.18 273.92 372.39 251.07 376.69 C 241.45 378.38 232.67 384.26 227.55 392.58 C 223.85 398.00 222.93 404.55 221.84 410.85 C 221.54 413.10 219.01 413.62 217.28 414.40 C 215.09 413.81 212.50 412.49 212.41 409.91 C 212.35 389.94 227.74 371.41 247.21 367.29 C 271.35 362.58 295.58 358.32 319.74 353.71 C 319.74 348.29 319.74 342.87 319.73 337.45 C 308.56 331.38 299.24 322.22 292.52 311.47 C 234.02 311.46 175.51 311.48 117.01 311.46 C 113.76 311.96 111.11 309.54 110.66 306.43 C 111.30 303.44 113.68 301.00 116.92 301.47 C 170.44 301.46 223.97 301.47 277.50 301.47 C 280.75 301.46 283.99 301.46 287.24 301.47 C 285.68 297.33 284.31 293.14 283.12 288.89 C 275.31 289.29 266.96 287.58 261.30 281.82 C 254.23 275.34 252.11 264.93 254.61 255.85 C 251.45 255.86 248.29 255.86 245.13 255.87 C 243.38 255.86 241.63 255.86 239.88 255.87 C 240.05 261.66 239.70 268.01 235.71 272.61 C 232.22 277.04 226.65 279.60 221.03 279.53 C 206.67 279.52 192.31 279.58 177.95 279.50 C 170.94 279.48 164.25 275.01 161.46 268.60 C 159.56 264.63 159.84 260.14 159.75 255.86 C 118.17 255.87 76.58 255.88 35.00 255.86 C 31.06 255.91 27.07 255.55 23.17 256.28 C 21.76 260.32 22.60 264.75 22.54 268.94 C 22.97 283.11 33.33 296.17 46.94 300.03 C 56.90 302.84 67.37 300.62 77.50 301.75 C 79.79 302.11 80.46 304.62 81.25 306.43 C 80.70 308.28 79.90 310.46 77.87 311.11 C 74.95 311.72 71.93 311.43 68.97 311.48 C 60.67 311.33 52.15 312.13 44.09 309.64 C 30.49 305.71 19.17 294.80 14.75 281.35 C 12.14 273.88 12.32 265.85 12.51 258.05 C 12.44 252.44 16.72 247.24 22.22 246.19 C 26.29 245.58 30.43 245.93 34.53 245.87 C 34.54 177.25 34.48 108.63 34.56 40.02 M 44.54 40.99 C 44.51 109.28 44.53 177.57 44.53 245.87 C 112.87 245.85 181.22 245.89 249.56 245.85 C 253.34 245.87 257.12 245.87 260.91 245.86 C 266.26 240.58 273.74 238.41 281.13 238.55 C 281.13 235.59 281.13 232.63 281.13 229.68 C 278.04 229.70 274.93 229.47 271.85 229.78 C 203.21 229.48 134.57 229.82 65.93 229.61 C 62.94 229.77 60.47 226.98 60.80 224.03 C 60.74 169.38 60.81 114.72 60.77 60.06 C 60.80 57.39 60.60 54.71 61.00 52.07 C 61.50 49.39 64.38 48.09 66.88 48.34 C 139.91 48.33 212.95 48.34 285.98 48.33 C 289.17 48.39 292.39 48.10 295.56 48.57 C 297.92 48.92 298.59 51.51 299.51 53.32 C 298.61 55.74 297.12 58.66 294.03 58.29 C 219.62 58.39 145.21 58.32 70.80 58.32 C 70.76 112.10 70.79 165.89 70.78 219.67 C 140.89 219.64 211.01 219.72 281.12 219.63 C 281.18 210.42 281.05 201.21 281.17 192.01 C 281.40 180.32 287.80 169.04 297.56 162.66 C 303.56 158.63 310.77 156.53 317.99 156.52 C 328.94 156.47 339.89 156.49 350.84 156.52 C 350.97 123.79 350.88 91.06 350.90 58.33 C 344.93 58.21 338.95 58.60 333.00 58.16 C 330.42 57.99 329.65 55.22 328.64 53.33 C 329.65 51.32 330.63 48.48 333.35 48.45 C 340.88 48.20 348.43 48.32 355.97 48.39 C 358.91 48.29 361.18 51.11 360.88 53.95 C 360.93 85.18 360.89 116.41 360.90 147.64 C 360.90 150.63 360.90 153.62 360.91 156.60 C 366.32 156.60 371.72 156.59 377.12 156.62 C 377.16 153.63 377.15 150.63 377.17 147.64 C 377.14 112.08 377.20 76.51 377.14 40.95 C 377.55 33.85 371.13 27.51 364.04 27.95 C 262.02 27.91 159.99 27.93 57.97 27.94 C 50.77 27.37 44.09 33.72 44.54 40.99 M 419.34 150.01 C 414.56 159.45 404.79 166.31 394.07 166.50 C 368.72 166.60 343.37 166.47 318.03 166.56 C 307.65 166.39 297.62 172.85 293.47 182.35 C 289.76 190.55 291.56 199.76 291.14 208.46 C 335.34 208.42 379.54 208.56 423.74 208.39 C 428.13 203.56 433.43 199.34 436.33 193.36 C 441.47 183.33 440.27 170.47 433.40 161.55 C 429.74 156.59 424.30 153.48 419.34 150.01 M 291.26 218.52 C 291.28 224.72 291.28 230.93 291.25 237.13 C 295.45 230.81 299.95 224.71 304.34 218.54 C 299.98 218.55 295.62 218.57 291.26 218.52 M 316.72 218.47 C 308.33 230.51 299.56 242.31 291.34 254.46 C 290.52 269.88 291.56 285.91 297.77 300.26 C 303.25 313.47 314.11 324.03 327.03 329.97 C 345.46 339.77 368.57 338.62 386.71 328.70 C 401.31 320.91 412.79 307.35 417.63 291.48 C 421.52 279.56 420.73 266.83 420.47 254.50 C 412.29 242.33 403.47 230.55 395.10 218.49 C 368.98 218.44 342.85 218.47 316.72 218.47 M 407.45 218.52 C 411.86 224.71 416.33 230.85 420.60 237.13 C 420.53 230.93 420.56 224.73 420.57 218.53 C 416.20 218.56 411.83 218.56 407.45 218.52 M 269.09 252.16 C 262.11 257.34 261.67 269.10 268.35 274.71 C 271.93 277.87 276.83 278.59 281.42 278.95 C 280.93 268.81 281.24 258.66 281.13 248.52 C 276.93 248.86 272.49 249.45 269.09 252.16 M 430.69 248.49 C 430.56 258.64 430.90 268.81 430.39 278.96 C 435.45 278.60 440.89 277.28 444.27 273.18 C 449.16 267.68 448.83 258.52 443.54 253.39 C 440.21 249.92 435.30 248.86 430.69 248.49 M 169.76 255.87 C 169.84 258.50 169.64 261.19 170.31 263.76 C 171.43 267.41 175.24 269.75 178.99 269.52 C 192.67 269.56 206.35 269.52 220.03 269.55 C 223.04 269.68 226.27 268.69 228.06 266.13 C 230.35 263.22 229.71 259.31 229.88 255.87 C 209.84 255.86 189.80 255.87 169.76 255.87 M 329.74 342.15 C 329.76 348.77 329.70 355.39 329.74 362.02 C 329.77 369.14 332.26 376.48 337.53 381.43 C 347.02 390.52 363.26 390.64 373.24 382.28 C 378.64 377.87 381.72 371.01 381.98 364.09 C 382.18 356.68 382.00 349.26 382.06 341.84 C 365.31 347.84 346.50 348.41 329.74 342.15 Z" />
<path fill="#000000" opacity="1.00" d=" M 308.61 53.32 C 309.64 51.08 311.08 48.23 313.98 48.35 C 316.97 48.06 318.61 50.94 319.56 53.32 C 318.61 55.71 317.01 58.59 313.99 58.33 C 311.07 58.43 309.60 55.60 308.61 53.32 Z" />
<path fill="#000000" opacity="1.00" d=" M 427.31 56.35 C 429.67 55.02 433.30 55.95 434.19 58.67 C 435.98 63.66 436.89 69.30 440.80 73.20 C 443.41 75.99 447.30 76.71 450.58 78.39 C 453.75 79.87 453.78 85.13 450.64 86.65 C 447.15 88.44 442.97 89.22 440.33 92.34 C 436.80 96.18 435.94 101.47 434.27 106.21 C 433.09 110.43 426.06 110.28 425.11 105.99 C 423.53 100.51 422.37 94.14 417.18 90.82 C 414.36 88.76 410.83 88.03 407.96 86.08 C 405.33 83.79 406.33 78.90 409.75 77.97 C 414.60 76.26 419.75 73.85 421.78 68.73 C 424.22 64.90 423.51 59.20 427.31 56.35 M 423.17 82.63 C 425.64 84.70 427.87 87.04 429.81 89.63 C 431.62 87.06 433.72 84.70 436.05 82.59 C 433.69 80.37 431.56 77.92 429.73 75.24 C 427.89 78.00 425.72 80.51 423.17 82.63 Z" />
<path fill="#000000" opacity="1.00" d=" M 174.07 108.07 C 175.49 106.77 176.93 105.05 179.02 105.04 C 181.77 104.82 184.32 107.21 184.26 109.98 C 184.32 112.19 182.54 113.73 181.16 115.21 C 173.40 122.85 165.76 130.62 158.01 138.27 C 165.78 146.08 173.56 153.85 181.37 161.61 C 182.54 162.91 184.04 164.17 184.31 166.00 C 184.73 169.30 181.24 172.41 178.01 171.50 C 176.50 170.99 175.40 169.77 174.26 168.72 C 165.80 160.20 157.32 151.70 148.80 143.24 C 147.43 141.80 145.71 140.19 145.95 137.99 C 145.99 136.16 147.43 134.85 148.57 133.59 C 157.09 125.11 165.61 116.61 174.07 108.07 Z" />
<path fill="#000000" opacity="1.00" d=" M 237.48 109.01 C 238.21 105.54 243.03 103.49 245.66 106.26 C 254.67 114.93 263.33 123.97 272.28 132.71 C 273.67 134.24 275.58 135.71 275.72 137.94 C 275.98 140.05 274.40 141.69 273.06 143.09 C 264.38 151.72 255.72 160.38 247.08 169.05 C 245.86 170.16 244.58 171.54 242.82 171.63 C 239.87 171.83 237.06 169.08 237.35 166.11 C 237.51 164.41 238.86 163.20 239.95 162.01 C 247.87 154.13 255.77 146.22 263.66 138.30 C 255.84 130.45 248.02 122.60 240.15 114.80 C 238.66 113.26 236.76 111.37 237.48 109.01 Z" />
<path fill="#000000" opacity="1.00" d=" M 218.26 107.11 C 220.95 105.35 225.09 106.91 225.90 110.03 C 226.31 111.74 225.53 113.42 225.05 115.03 C 218.44 133.14 212.05 151.32 205.42 169.42 C 204.58 172.95 199.94 174.11 197.35 171.73 C 195.22 170.18 195.42 167.31 196.36 165.14 C 202.80 147.23 209.29 129.33 215.68 111.40 C 216.31 109.87 216.82 108.10 218.26 107.11 Z" />
<path fill="#000000" opacity="1.00" d=" M 323.51 244.61 C 326.26 243.25 330.30 244.85 330.61 248.11 C 330.77 251.06 331.22 254.24 330.10 257.06 C 328.01 261.02 320.84 259.71 320.84 255.01 C 320.85 251.55 319.62 246.47 323.51 244.61 Z" />
<path fill="#000000" opacity="1.00" d=" M 384.30 244.42 C 386.93 243.44 390.49 244.97 390.87 247.94 C 391.13 250.83 391.37 253.86 390.58 256.69 C 388.78 261.02 381.17 259.91 381.12 255.04 C 381.03 251.46 379.91 245.94 384.30 244.42 Z" />
<path fill="#000000" opacity="1.00" d=" M 353.31 250.30 C 355.95 248.76 360.06 250.04 360.69 253.22 C 361.18 257.80 360.77 262.43 360.91 267.03 C 360.80 269.70 361.24 272.47 360.43 275.06 C 358.75 279.12 351.68 278.48 351.09 274.02 C 350.63 268.68 351.03 263.29 350.88 257.93 C 350.93 255.28 350.47 251.73 353.31 250.30 Z" />
<path fill="#000000" opacity="1.00" d=" M 334.33 285.36 C 336.29 284.38 339.11 284.70 340.28 286.72 C 341.92 289.38 343.04 292.46 345.55 294.48 C 351.46 299.68 361.27 299.43 366.87 293.88 C 369.22 291.72 370.14 288.54 372.03 286.05 C 374.97 283.16 380.87 285.83 380.37 290.04 C 377.84 300.47 367.49 307.95 356.90 308.16 C 345.90 308.79 334.75 301.60 331.60 290.89 C 330.89 288.68 332.27 286.24 334.33 285.36 Z" />
<path fill="#000000" opacity="1.00" d=" M 90.61 306.43 C 91.43 304.01 93.07 301.23 96.04 301.46 C 98.95 301.32 100.47 304.08 101.32 306.43 C 100.67 308.91 98.88 311.53 96.02 311.46 C 93.12 311.61 91.21 308.97 90.61 306.43 Z" />
<path fill="#000000" opacity="1.00" d=" M 162.27 339.23 C 164.63 337.60 168.59 338.43 169.55 341.30 C 171.32 346.29 172.25 351.92 176.16 355.82 C 178.77 358.64 182.69 359.38 185.99 361.06 C 189.02 362.50 189.17 367.49 186.27 369.15 C 182.78 371.04 178.52 371.77 175.80 374.88 C 172.18 378.74 171.31 384.12 169.62 388.93 C 168.48 392.76 162.25 393.02 160.75 389.34 C 159.40 385.88 159.00 382.08 157.23 378.78 C 155.13 374.52 150.83 372.09 146.58 370.45 C 144.19 369.62 141.53 367.93 141.84 365.02 C 141.85 360.75 146.75 360.20 149.71 358.71 C 155.06 356.67 157.78 351.13 159.17 345.93 C 160.02 343.66 160.13 340.74 162.27 339.23 M 158.56 365.32 C 161.03 367.37 163.24 369.71 165.19 372.27 C 167.00 369.70 169.09 367.34 171.42 365.23 C 169.03 363.04 166.94 360.56 165.12 357.90 C 163.25 360.63 161.07 363.15 158.56 365.32 Z" />
<path fill="#000000" opacity="1.00" d=" M 212.27 429.03 C 212.17 426.17 214.81 424.36 217.30 423.72 C 219.59 424.62 222.35 426.06 222.25 428.95 C 222.53 431.94 219.71 433.59 217.29 434.44 C 214.74 433.85 212.10 431.92 212.27 429.03 Z" />
<path fill="#000000" opacity="1.00" d=" M 263.90 429.99 C 266.97 427.78 272.08 429.98 271.76 434.02 C 271.94 452.38 271.84 470.76 271.79 489.13 C 271.97 491.81 269.61 494.12 266.96 494.05 C 264.24 494.24 261.70 491.92 261.90 489.15 C 261.73 471.76 261.93 454.36 261.80 436.98 C 261.94 434.59 261.56 431.47 263.90 429.99 Z" />
<path fill="#000000" opacity="1.00" d=" M 440.35 432.21 C 441.56 428.10 448.49 428.14 449.60 432.31 C 450.20 435.16 449.98 438.11 450.01 441.01 C 449.86 457.05 450.08 473.10 449.91 489.14 C 450.11 491.84 447.68 494.15 445.02 494.05 C 442.31 494.21 439.82 491.88 440.02 489.14 C 439.85 473.09 440.05 457.04 439.93 440.99 C 439.97 438.06 439.73 435.09 440.35 432.21 Z" />
<path fill="#000000" opacity="1.00" d=" M 212.33 448.98 C 212.12 446.08 214.78 444.32 217.30 443.77 C 219.65 444.55 222.38 445.97 222.15 448.90 C 222.39 462.30 222.26 475.73 222.20 489.14 C 222.54 493.04 217.67 495.34 214.58 493.35 C 211.91 491.93 212.30 488.56 212.23 486.03 C 212.36 473.68 212.14 461.33 212.33 448.98 Z" />
</g>
<g id="#72c2e9ff">
<path fill="#72c2e9" opacity="1.00" d=" M 44.54 40.99 C 44.09 33.72 50.77 27.37 57.97 27.94 C 159.99 27.93 262.02 27.91 364.04 27.95 C 371.13 27.51 377.55 33.85 377.14 40.95 C 377.20 76.51 377.14 112.08 377.17 147.64 C 371.75 147.56 366.32 147.56 360.90 147.64 C 360.89 116.41 360.93 85.18 360.88 53.95 C 361.18 51.11 358.91 48.29 355.97 48.39 C 348.43 48.32 340.88 48.20 333.35 48.45 C 330.63 48.48 329.65 51.32 328.64 53.33 C 325.61 53.33 322.58 53.33 319.56 53.32 C 318.61 50.94 316.97 48.06 313.98 48.35 C 311.08 48.23 309.64 51.08 308.61 53.32 C 305.57 53.33 302.54 53.33 299.51 53.32 C 298.59 51.51 297.92 48.92 295.56 48.57 C 292.39 48.10 289.17 48.39 285.98 48.33 C 212.95 48.34 139.91 48.33 66.88 48.34 C 64.38 48.09 61.50 49.39 61.00 52.07 C 60.60 54.71 60.80 57.39 60.77 60.06 C 60.81 114.72 60.74 169.38 60.80 224.03 C 60.47 226.98 62.94 229.77 65.93 229.61 C 134.57 229.82 203.21 229.48 271.85 229.78 C 267.16 231.50 262.48 233.45 258.40 236.36 C 254.84 238.89 252.16 242.39 249.56 245.85 C 181.22 245.89 112.87 245.85 44.53 245.87 C 44.53 177.57 44.51 109.28 44.54 40.99 Z" />
<path fill="#72c2e9" opacity="1.00" d=" M 23.17 256.28 C 27.07 255.55 31.06 255.91 35.00 255.86 C 76.58 255.88 118.17 255.87 159.75 255.86 C 159.84 260.14 159.56 264.63 161.46 268.60 C 164.25 275.01 170.94 279.48 177.95 279.50 C 192.31 279.58 206.67 279.52 221.03 279.53 C 226.65 279.60 232.22 277.04 235.71 272.61 C 239.70 268.01 240.05 261.66 239.88 255.87 C 241.63 255.86 243.38 255.86 245.13 255.87 C 244.12 264.10 244.47 272.89 248.83 280.21 C 254.23 290.31 264.97 296.62 276.20 297.90 C 276.63 299.08 277.07 300.27 277.50 301.47 C 223.97 301.47 170.44 301.46 116.92 301.47 C 113.68 301.00 111.30 303.44 110.66 306.43 C 107.55 306.48 104.43 306.48 101.32 306.43 C 100.47 304.08 98.95 301.32 96.04 301.46 C 93.07 301.23 91.43 304.01 90.61 306.43 C 87.49 306.48 84.37 306.48 81.25 306.43 C 80.46 304.62 79.79 302.11 77.50 301.75 C 67.37 300.62 56.90 302.84 46.94 300.03 C 33.33 296.17 22.97 283.11 22.54 268.94 C 22.60 264.75 21.76 260.32 23.17 256.28 Z" />
</g>
<g id="#f0bf20ff">
<path fill="#f0bf20" opacity="1.00" d=" M 299.51 53.32 C 302.54 53.33 305.57 53.33 308.61 53.32 C 309.60 55.60 311.07 58.43 313.99 58.33 C 317.01 58.59 318.61 55.71 319.56 53.32 C 322.58 53.33 325.61 53.33 328.64 53.33 C 329.65 55.22 330.42 57.99 333.00 58.16 C 338.95 58.60 344.93 58.21 350.90 58.33 C 350.88 91.06 350.97 123.79 350.84 156.52 C 339.89 156.49 328.94 156.47 317.99 156.52 C 310.77 156.53 303.56 158.63 297.56 162.66 C 287.80 169.04 281.40 180.32 281.17 192.01 C 281.05 201.21 281.18 210.42 281.12 219.63 C 211.01 219.72 140.89 219.64 70.78 219.67 C 70.79 165.89 70.76 112.10 70.80 58.32 C 145.21 58.32 219.62 58.39 294.03 58.29 C 297.12 58.66 298.61 55.74 299.51 53.32 M 81.27 71.23 C 80.40 74.76 80.85 78.45 80.78 82.05 C 80.80 110.03 80.80 138.02 80.78 166.00 C 80.85 169.60 80.41 173.29 81.26 176.83 C 82.52 179.87 87.00 180.46 89.30 178.27 C 90.81 176.99 90.69 174.85 90.81 173.07 C 90.83 141.49 90.71 109.90 90.86 78.31 C 169.56 78.37 248.27 78.31 326.97 78.35 C 330.59 78.29 334.26 78.67 337.84 77.95 C 341.99 76.64 341.79 69.61 337.50 68.63 C 333.73 68.01 329.88 68.39 326.07 68.33 C 246.37 68.34 166.66 68.32 86.95 68.34 C 84.74 68.25 82.15 68.95 81.27 71.23 M 174.07 108.07 C 165.61 116.61 157.09 125.11 148.57 133.59 C 147.43 134.85 145.99 136.16 145.95 137.99 C 145.71 140.19 147.43 141.80 148.80 143.24 C 157.32 151.70 165.80 160.20 174.26 168.72 C 175.40 169.77 176.50 170.99 178.01 171.50 C 181.24 172.41 184.73 169.30 184.31 166.00 C 184.04 164.17 182.54 162.91 181.37 161.61 C 173.56 153.85 165.78 146.08 158.01 138.27 C 165.76 130.62 173.40 122.85 181.16 115.21 C 182.54 113.73 184.32 112.19 184.26 109.98 C 184.32 107.21 181.77 104.82 179.02 105.04 C 176.93 105.05 175.49 106.77 174.07 108.07 M 237.48 109.01 C 236.76 111.37 238.66 113.26 240.15 114.80 C 248.02 122.60 255.84 130.45 263.66 138.30 C 255.77 146.22 247.87 154.13 239.95 162.01 C 238.86 163.20 237.51 164.41 237.35 166.11 C 237.06 169.08 239.87 171.83 242.82 171.63 C 244.58 171.54 245.86 170.16 247.08 169.05 C 255.72 160.38 264.38 151.72 273.06 143.09 C 274.40 141.69 275.98 140.05 275.72 137.94 C 275.58 135.71 273.67 134.24 272.28 132.71 C 263.33 123.97 254.67 114.93 245.66 106.26 C 243.03 103.49 238.21 105.54 237.48 109.01 M 218.26 107.11 C 216.82 108.10 216.31 109.87 215.68 111.40 C 209.29 129.33 202.80 147.23 196.36 165.14 C 195.42 167.31 195.22 170.18 197.35 171.73 C 199.94 174.11 204.58 172.95 205.42 169.42 C 212.05 151.32 218.44 133.14 225.05 115.03 C 225.53 113.42 226.31 111.74 225.90 110.03 C 225.09 106.91 220.95 105.35 218.26 107.11 M 83.26 190.29 C 81.03 191.27 80.84 193.91 80.78 196.02 C 80.71 199.61 80.47 203.28 81.26 206.80 C 82.81 210.88 89.93 210.34 90.55 205.91 C 91.02 201.73 91.04 197.46 90.54 193.29 C 90.05 190.07 85.88 188.79 83.26 190.29 Z" />
<path fill="#f0bf20" opacity="1.00" d=" M 423.17 82.63 C 425.72 80.51 427.89 78.00 429.73 75.24 C 431.56 77.92 433.69 80.37 436.05 82.59 C 433.72 84.70 431.62 87.06 429.81 89.63 C 427.87 87.04 425.64 84.70 423.17 82.63 Z" />
<path fill="#f0bf20" opacity="1.00" d=" M 158.56 365.32 C 161.07 363.15 163.25 360.63 165.12 357.90 C 166.94 360.56 169.03 363.04 171.42 365.23 C 169.09 367.34 167.00 369.70 165.19 372.27 C 163.24 369.71 161.03 367.37 158.56 365.32 Z" />
</g>
<g id="#f8e5b0ff">
<path fill="#f8e5b0" opacity="1.00" d=" M 81.27 71.23 C 82.15 68.95 84.74 68.25 86.95 68.34 C 166.66 68.32 246.37 68.34 326.07 68.33 C 329.88 68.39 333.73 68.01 337.50 68.63 C 341.79 69.61 341.99 76.64 337.84 77.95 C 334.26 78.67 330.59 78.29 326.97 78.35 C 248.27 78.31 169.56 78.37 90.86 78.31 C 90.71 109.90 90.83 141.49 90.81 173.07 C 90.69 174.85 90.81 176.99 89.30 178.27 C 87.00 180.46 82.52 179.87 81.26 176.83 C 80.41 173.29 80.85 169.60 80.78 166.00 C 80.80 138.02 80.80 110.03 80.78 82.05 C 80.85 78.45 80.40 74.76 81.27 71.23 Z" />
<path fill="#f8e5b0" opacity="1.00" d=" M 83.26 190.29 C 85.88 188.79 90.05 190.07 90.54 193.29 C 91.04 197.46 91.02 201.73 90.55 205.91 C 89.93 210.34 82.81 210.88 81.26 206.80 C 80.47 203.28 80.71 199.61 80.78 196.02 C 80.84 193.91 81.03 191.27 83.26 190.29 Z" />
</g>
<g id="#4ba5c8ff">
<path fill="#4ba5c8" opacity="1.00" d=" M 360.90 147.64 C 366.32 147.56 371.75 147.56 377.17 147.64 C 377.15 150.63 377.16 153.63 377.12 156.62 C 371.72 156.59 366.32 156.60 360.91 156.60 C 360.90 153.62 360.90 150.63 360.90 147.64 Z" />
<path fill="#4ba5c8" opacity="1.00" d=" M 271.85 229.78 C 274.93 229.47 278.04 229.70 281.13 229.68 C 281.13 232.63 281.13 235.59 281.13 238.55 C 273.74 238.41 266.26 240.58 260.91 245.86 C 257.12 245.87 253.34 245.87 249.56 245.85 C 252.16 242.39 254.84 238.89 258.40 236.36 C 262.48 233.45 267.16 231.50 271.85 229.78 Z" />
<path fill="#4ba5c8" opacity="1.00" d=" M 169.76 255.87 C 189.80 255.87 209.84 255.86 229.88 255.87 C 229.71 259.31 230.35 263.22 228.06 266.13 C 226.27 268.69 223.04 269.68 220.03 269.55 C 206.35 269.52 192.67 269.56 178.99 269.52 C 175.24 269.75 171.43 267.41 170.31 263.76 C 169.64 261.19 169.84 258.50 169.76 255.87 Z" />
<path fill="#4ba5c8" opacity="1.00" d=" M 245.13 255.87 C 248.29 255.86 251.45 255.86 254.61 255.85 C 252.11 264.93 254.23 275.34 261.30 281.82 C 266.96 287.58 275.31 289.29 283.12 288.89 C 284.31 293.14 285.68 297.33 287.24 301.47 C 283.99 301.46 280.75 301.46 277.50 301.47 C 277.07 300.27 276.63 299.08 276.20 297.90 C 264.97 296.62 254.23 290.31 248.83 280.21 C 244.47 272.89 244.12 264.10 245.13 255.87 Z" />
</g>
<g id="#7c7b7aff">
<path fill="#7c7b7a" opacity="1.00" d=" M 419.34 150.01 C 424.30 153.48 429.74 156.59 433.40 161.55 C 440.27 170.47 441.47 183.33 436.33 193.36 C 433.43 199.34 428.13 203.56 423.74 208.39 C 379.54 208.56 335.34 208.42 291.14 208.46 C 291.56 199.76 289.76 190.55 293.47 182.35 C 297.62 172.85 307.65 166.39 318.03 166.56 C 343.37 166.47 368.72 166.60 394.07 166.50 C 404.79 166.31 414.56 159.45 419.34 150.01 M 419.51 159.30 C 418.85 160.05 418.19 160.80 417.53 161.55 C 417.49 162.86 417.46 164.18 417.44 165.49 C 420.09 168.00 422.86 170.60 424.30 174.04 C 425.81 177.11 425.47 180.60 425.42 183.91 C 427.34 185.07 429.51 185.62 431.73 185.88 C 432.85 184.08 434.73 182.39 434.41 180.07 C 434.14 173.21 431.32 166.46 426.47 161.58 C 424.81 159.34 421.99 159.42 419.51 159.30 M 418.28 193.42 C 417.09 194.95 415.90 196.48 414.71 198.01 C 415.12 199.34 415.53 200.67 415.94 202.01 C 417.30 202.51 418.67 203.02 420.03 203.55 C 422.58 201.96 424.71 199.72 424.85 196.55 C 423.74 195.55 422.64 194.55 421.55 193.54 C 420.46 193.50 419.37 193.46 418.28 193.42 Z" />
</g>
<g id="#fdb69fff">
<path fill="#fdb69f" opacity="1.00" d=" M 419.51 159.30 C 421.99 159.42 424.81 159.34 426.47 161.58 C 431.32 166.46 434.14 173.21 434.41 180.07 C 434.73 182.39 432.85 184.08 431.73 185.88 C 429.51 185.62 427.34 185.07 425.42 183.91 C 425.47 180.60 425.81 177.11 424.30 174.04 C 422.86 170.60 420.09 168.00 417.44 165.49 C 417.46 164.18 417.49 162.86 417.53 161.55 C 418.19 160.80 418.85 160.05 419.51 159.30 Z" />
<path fill="#fdb69f" opacity="1.00" d=" M 418.28 193.42 C 419.37 193.46 420.46 193.50 421.55 193.54 C 422.64 194.55 423.74 195.55 424.85 196.55 C 424.71 199.72 422.58 201.96 420.03 203.55 C 418.67 203.02 417.30 202.51 415.94 202.01 C 415.53 200.67 415.12 199.34 414.71 198.01 C 415.90 196.48 417.09 194.95 418.28 193.42 Z" />
<path fill="#fdb69f" opacity="1.00" d=" M 291.26 218.52 C 295.62 218.57 299.98 218.55 304.34 218.54 C 299.95 224.71 295.45 230.81 291.25 237.13 C 291.28 230.93 291.28 224.72 291.26 218.52 Z" />
<path fill="#fdb69f" opacity="1.00" d=" M 316.72 218.47 C 342.85 218.47 368.98 218.44 395.10 218.49 C 403.47 230.55 412.29 242.33 420.47 254.50 C 420.73 266.83 421.52 279.56 417.63 291.48 C 412.79 307.35 401.31 320.91 386.71 328.70 C 368.57 338.62 345.46 339.77 327.03 329.97 C 314.11 324.03 303.25 313.47 297.77 300.26 C 291.56 285.91 290.52 269.88 291.34 254.46 C 299.56 242.31 308.33 230.51 316.72 218.47 M 323.51 244.61 C 319.62 246.47 320.85 251.55 320.84 255.01 C 320.84 259.71 328.01 261.02 330.10 257.06 C 331.22 254.24 330.77 251.06 330.61 248.11 C 330.30 244.85 326.26 243.25 323.51 244.61 M 384.30 244.42 C 379.91 245.94 381.03 251.46 381.12 255.04 C 381.17 259.91 388.78 261.02 390.58 256.69 C 391.37 253.86 391.13 250.83 390.87 247.94 C 390.49 244.97 386.93 243.44 384.30 244.42 M 353.31 250.30 C 350.47 251.73 350.93 255.28 350.88 257.93 C 351.03 263.29 350.63 268.68 351.09 274.02 C 351.68 278.48 358.75 279.12 360.43 275.06 C 361.24 272.47 360.80 269.70 360.91 267.03 C 360.77 262.43 361.18 257.80 360.69 253.22 C 360.06 250.04 355.95 248.76 353.31 250.30 M 334.33 285.36 C 332.27 286.24 330.89 288.68 331.60 290.89 C 334.75 301.60 345.90 308.79 356.90 308.16 C 367.49 307.95 377.84 300.47 380.37 290.04 C 380.87 285.83 374.97 283.16 372.03 286.05 C 370.14 288.54 369.22 291.72 366.87 293.88 C 361.27 299.43 351.46 299.68 345.55 294.48 C 343.04 292.46 341.92 289.38 340.28 286.72 C 339.11 284.70 336.29 284.38 334.33 285.36 Z" />
<path fill="#fdb69f" opacity="1.00" d=" M 407.45 218.52 C 411.83 218.56 416.20 218.56 420.57 218.53 C 420.56 224.73 420.53 230.93 420.60 237.13 C 416.33 230.85 411.86 224.71 407.45 218.52 Z" />
<path fill="#fdb69f" opacity="1.00" d=" M 269.09 252.16 C 272.49 249.45 276.93 248.86 281.13 248.52 C 281.24 258.66 280.93 268.81 281.42 278.95 C 276.83 278.59 271.93 277.87 268.35 274.71 C 261.67 269.10 262.11 257.34 269.09 252.16 Z" />
<path fill="#fdb69f" opacity="1.00" d=" M 430.69 248.49 C 435.30 248.86 440.21 249.92 443.54 253.39 C 448.83 258.52 449.16 267.68 444.27 273.18 C 440.89 277.28 435.45 278.60 430.39 278.96 C 430.90 268.81 430.56 258.64 430.69 248.49 Z" />
<path fill="#fdb69f" opacity="1.00" d=" M 329.74 342.15 C 346.50 348.41 365.31 347.84 382.06 341.84 C 382.00 349.26 382.18 356.68 381.98 364.09 C 381.72 371.01 378.64 377.87 373.24 382.28 C 363.26 390.64 347.02 390.52 337.53 381.43 C 332.26 376.48 329.77 369.14 329.74 362.02 C 329.70 355.39 329.76 348.77 329.74 342.15 Z" />
</g>
<g id="#fc5d3dff">
<path fill="#fc5d3d" opacity="1.00" d=" M 251.07 376.69 C 273.92 372.39 296.80 368.18 319.66 363.90 C 320.28 372.32 322.93 380.89 328.91 387.08 C 342.76 401.96 369.19 401.96 382.99 387.01 C 388.92 380.81 391.51 372.27 392.17 363.89 C 415.43 368.30 438.73 372.49 461.97 376.96 C 477.29 379.99 489.28 394.42 489.48 410.03 C 489.65 436.40 489.42 462.78 489.58 489.14 C 476.36 489.12 463.13 489.14 449.91 489.14 C 450.08 473.10 449.86 457.05 450.01 441.01 C 449.98 438.11 450.20 435.16 449.60 432.31 C 448.49 428.14 441.56 428.10 440.35 432.21 C 439.73 435.09 439.97 438.06 439.93 440.99 C 440.05 457.04 439.85 473.09 440.02 489.14 C 383.94 489.13 327.87 489.13 271.79 489.13 C 271.84 470.76 271.94 452.38 271.76 434.02 C 272.08 429.98 266.97 427.78 263.90 429.99 C 261.56 431.47 261.94 434.59 261.80 436.98 C 261.93 454.36 261.73 471.76 261.90 489.15 C 248.67 489.12 235.44 489.13 222.20 489.14 C 222.26 475.73 222.39 462.30 222.15 448.90 C 222.38 445.97 219.65 444.55 217.30 443.77 C 217.25 440.66 217.26 437.55 217.29 434.44 C 219.71 433.59 222.53 431.94 222.25 428.95 C 222.35 426.06 219.59 424.62 217.30 423.72 C 217.26 420.61 217.26 417.50 217.28 414.40 C 219.01 413.62 221.54 413.10 221.84 410.85 C 222.93 404.55 223.85 398.00 227.55 392.58 C 232.67 384.26 241.45 378.38 251.07 376.69 Z" />
</g>
</svg>
