<?xml version="1.0" encoding="utf-8"?>
<!-- Generator: Adobe Illustrator 24.1.2, SVG Export Plug-In . SVG Version: 6.00 Build 0)  -->
<svg version="1.1" id="Camada_1" xmlns="http://www.w3.org/2000/svg" xmlns:xlink="http://www.w3.org/1999/xlink" x="0px" y="0px"
	 viewBox="0 0 103 150" style="enable-background:new 0 0 103 150;" xml:space="preserve">
<style type="text/css">
	.st0{fill:#F1EC57;}
	.st1{fill:#F0EB39;}
	.st2{fill:#F9DAA5;}
	.st3{fill:#F5D54A;}
	.st4{fill:#EB9A16;}
	.st5{fill:#B64421;}
	.st6{fill:#DA4E11;}
	.st7{fill:#F4D025;}
	.st8{fill:#E06D11;}
	.st9{fill:#ABCE2F;}
	.st10{fill:#DD4014;}
	.st11{fill:#98C726;}
	.st12{fill:#236834;}
	.st13{fill:#1C4E28;}
	.st14{fill:#79B728;}
	.st15{fill:#59C0C7;}
	.st16{fill:#2279A7;}
	.st17{fill:#E84976;}
	.st18{fill:#F4ACA4;}
	.st19{fill:#389DD3;}
	.st20{fill:#A41E2F;}
	.st21{fill:#21B5D4;}
	.st22{fill:#81191E;}
	.st23{fill:#2588B6;}
	.st24{fill:#CB112F;}
	.st25{fill:#215E8F;}
	.st26{fill:#A71981;}
	.st27{fill:#E3318C;}
	.st28{fill:#512662;}
	.st29{fill:#751B81;}
	.st30{fill:#3EBDD0;}
	.st31{fill:#AB288B;}
	.st32{fill:#BF5EA0;}
</style>
<g id="_x23_f1ec57ff">
	<path class="st0" d="M38.9,1.5c11.1,0,22.2-0.1,33.3,0.1l-0.6,0.2c-5.6,4.1-10.8,8.9-15.4,14.2l-0.7-0.1C50.1,10.9,44.5,6.3,39,1.6
		L38.9,1.5z"/>
</g>
<g id="_x23_f0eb39ff">
	<path class="st1" d="M72.2,1.6c9.9-0.2,19.9,0,29.8-0.1l-0.2,0.2c-5,4.5-9.6,9.3-14.4,14l-0.7,0.2C82.1,10.8,77,6,71.6,1.8
		L72.2,1.6z"/>
</g>
<g id="_x23_f9daa5ff">
	<path class="st2" d="M39,1.6c5.5,4.7,11.1,9.3,16.5,14.2l0.4,0.4C50.2,20.7,44.7,25.4,39,30C39,20.5,39,11.1,39,1.6z"/>
</g>
<g id="_x23_f5d54aff">
	<path class="st3" d="M56.1,15.9c4.6-5.3,9.8-10,15.4-14.2c5.4,4.3,10.5,9,15.2,14.1C76.5,16.3,66.3,16.1,56.1,15.9z"/>
</g>
<g id="_x23_eb9a16ff">
	<path class="st4" d="M87.4,15.7c4.8-4.7,9.4-9.5,14.4-14c0,9.4,0.1,18.8,0,28.2l-0.2,0.3c-4.1-5.4-9.5-9.6-14.5-14.1L87.4,15.7z"/>
</g>
<g id="_x23_b64421ff">
	<path class="st5" d="M55.4,15.9l0.7,0.1c10.2,0.2,20.4,0.3,30.6-0.1l0.7-0.2l-0.4,0.4c-5,4.7-10.1,9.4-15.3,13.9
		c-5.7-4-10.7-9-15.9-13.7L55.4,15.9z"/>
</g>
<g id="_x23_da4e11ff">
	<path class="st6" d="M39,30c5.7-4.5,11.1-9.2,16.8-13.7c5.2,4.7,10.2,9.6,15.9,13.7l-0.2,0c-10.9,0.3-21.8,0-32.7,0.2L39,30z"/>
</g>
<g id="_x23_f4d025ff">
	<path class="st7" d="M71.7,29.9C77,25.4,82,20.8,87.1,16.1c-0.1,9.1,0,18.2,0,27.3h0l-0.4,0.4c-5-4.7-10.1-9.3-15.1-13.9L71.7,29.9
		z"/>
</g>
<g id="_x23_e06d11ff">
	<path class="st8" d="M87.1,16.1c5,4.5,10.4,8.7,14.5,14.1c-4.6,4.6-9.4,9.1-14.5,13.2C87.1,34.3,87,25.2,87.1,16.1z"/>
</g>
<g id="_x23_abce2fff">
	<path class="st9" d="M71.5,29.9c5.1,4.6,10.2,9.1,15.1,13.9c-5.2,4.8-10.4,9.7-15.1,15.1C71.4,49.2,71.6,39.6,71.5,29.9z"/>
</g>
<g id="_x23_dd4014ff">
	<path class="st10" d="M101.6,30.2l0.2-0.3c0.1,9.5,0.1,19.1,0,28.6l-0.2,0.3c-4.7-5.1-9.8-9.8-14.6-14.8v-0.5h0
		C92.2,39.3,97,34.8,101.6,30.2z"/>
</g>
<g id="_x23_98c726ff">
	<path class="st11" d="M86.7,43.8l0.4-0.4v0.5c0,9.6,0,19.2,0,28.8c0,0.3,0,0.8,0,1.1l-0.1-0.2c-4.7-5.3-10.2-9.9-15.6-14.5l0.3-0.3
		C76.3,53.5,81.5,48.6,86.7,43.8z"/>
</g>
<g id="_x23_236834ff">
	<path class="st12" d="M87.1,43.9c4.8,5,9.8,9.7,14.6,14.8c-4.5,5-9.4,9.6-14.5,14C87,63.1,87,53.5,87.1,43.9z"/>
</g>
<g id="_x23_1c4e28ff">
	<path class="st13" d="M101.6,58.7l0.2-0.3c0.1,9.7,0.2,19.5,0,29.2l-0.1,0.3c-4.8-4.8-9.8-9.4-14.7-14.1c0-0.3,0-0.8,0-1.1
		C92.2,68.4,97.1,63.7,101.6,58.7z"/>
</g>
<g id="_x23_79b728ff">
	<path class="st14" d="M71.4,59.2c5.4,4.6,10.9,9.1,15.6,14.5c-5,4.9-10.3,9.6-15.4,14.4C71.4,78.4,71.7,68.8,71.4,59.2z"/>
</g>
<g id="_x23_59c0c7ff">
	<path class="st15" d="M71.5,88c5.1-4.8,10.4-9.5,15.4-14.4l0.1,0.2c0,9.7-0.2,19.3,0.1,29l-0.4-0.3c-5.1-4.6-9.9-9.6-15.2-14.1
		l-0.2-0.2L71.5,88z"/>
	<path class="st15" d="M61.6,118.7c3.3-3.7,6.6-7.5,10-11.2c2.2,5.4,4.9,10.6,7.1,16c-0.5-0.1-1.6-0.4-2.1-0.5
		C71.6,121.7,66.6,120.1,61.6,118.7z"/>
</g>
<g id="_x23_2279a7ff">
	<path class="st16" d="M87.1,73.8c4.9,4.7,9.8,9.4,14.7,14.1c-4.3,5.5-9.7,9.9-14.5,14.8C86.8,93.1,87.1,83.5,87.1,73.8z"/>
</g>
<g id="_x23_e84976ff">
	<path class="st17" d="M2,88L2,88c4.6,5,9.3,9.8,13.6,14.8l-0.1,0.1c-4.6,5.1-9.2,10.1-13.4,15.5L2,118.7C2.1,108.5,2,98.3,2,88z"/>
</g>
<g id="_x23_f4aca4ff">
	<path class="st18" d="M2.1,88.1c9.3,0,18.5,0,27.8,0c-4.6,4.7-9.3,9.5-13.8,14.3l-0.4,0.4C11.3,97.8,6.7,93,2.1,88.1z"/>
</g>
<g id="_x23_389dd3ff">
	<path class="st19" d="M101.7,87.9l0.1-0.3c0.3,10.4-0.1,20.9,0.2,31.3l-0.3-0.4c-4.4-5.6-9.7-10.4-14.6-15.6l0.1-0.1
		C92.1,97.9,97.5,93.4,101.7,87.9z"/>
</g>
<g id="_x23_a41e2fff">
	<path class="st20" d="M29.9,88.1c-0.1,6.4,0.1,12.9-0.1,19.3l-0.1,0.3c-4.4-2.2-9.1-3.5-13.7-5.2C20.6,97.6,25.3,92.9,29.9,88.1z"
		/>
</g>
<g id="_x23_21b5d4ff">
	<path class="st21" d="M71.6,88.4c5.3,4.5,10.1,9.5,15.2,14.1c-5.1,1.6-10.2,3.3-15.3,4.8C71.6,101,71.4,94.7,71.6,88.4z"/>
</g>
<g id="_x23_81191eff">
	<path class="st22" d="M15.7,102.9l0.4-0.4c4.6,1.7,9.3,3,13.7,5.2c-2.1,5.5-4.7,10.8-7,16.2l-0.3-0.1
		C20.3,116.8,17.8,109.9,15.7,102.9L15.7,102.9z"/>
</g>
<g id="_x23_2588b6ff">
	<path class="st23" d="M71.5,107.3c5.1-1.5,10.2-3.2,15.3-4.8l0.4,0.3l-0.1,0.1c-3.2,6.7-5.1,13.9-8.1,20.6l-0.3-0.1
		c-2.2-5.4-4.9-10.6-7.1-16L71.5,107.3z"/>
</g>
<g id="_x23_cb112fff">
	<path class="st24" d="M2.2,118.5c4.2-5.4,8.9-10.4,13.4-15.5c2.2,7,4.7,13.8,6.8,20.8C15.6,122.2,8.9,120.3,2.2,118.5z"/>
</g>
<g id="_x23_215e8fff">
	<path class="st25" d="M79,123.5c3-6.8,4.9-14,8.1-20.6c4.9,5.2,10.2,10,14.6,15.6c-7.3,1.8-14.5,3.9-21.9,5.2L79,123.5z"/>
	<path class="st25" d="M51,136.9c9.4-4.3,18.8-8.7,28.3-12.9c-2.3,7.7-4.3,15.5-6.5,23.2l-0.2-0.1c-7-3.4-14.1-6.7-21.2-10L51,136.9
		z"/>
</g>
<g id="_x23_a71981ff">
	<path class="st26" d="M29.7,107.7l0.1-0.3c3.5,3.7,7,7.5,10.5,11.3c-5.9,1.7-11.7,3.4-17.6,5.2C25,118.5,27.7,113.2,29.7,107.7z"/>
</g>
<g id="_x23_e3318cff">
	<path class="st27" d="M2.2,118.5c6.7,1.8,13.4,3.7,20.2,5.3l0.3,0.1l0,0.3c0.9,7.8,1.9,15.5,3.3,23.2
		C18.1,137.7,10.1,128.2,2.2,118.5z"/>
</g>
<g id="_x23_512662ff">
	<path class="st28" d="M22.7,123.9c5.8-1.8,11.7-3.6,17.6-5.2l0.2,0c3.5,5.8,6.8,11.7,10.4,17.5c4.1-5.5,7.2-11.6,10.6-17.5l0.2,0.1
		c5,1.4,9.9,3,14.9,4.3c0.9,0.3,1.8,0.7,2.7,1c-9.5,4.2-18.9,8.6-28.3,12.9c-9.5-4.1-18.8-8.7-28.2-12.8L22.7,123.9z"/>
</g>
<g id="_x23_751b81ff">
	<path class="st29" d="M40.4,118.6c7,0,14,0,21,0c-3.4,5.9-6.5,12-10.6,17.5C47.2,130.4,44,124.4,40.4,118.6z"/>
</g>
<g id="_x23_3ebdd0ff">
	<path class="st30" d="M79.8,123.7c7.4-1.3,14.6-3.4,21.9-5.2c-9.5,9.7-19.2,19.1-28.9,28.7c2.2-7.7,4.2-15.5,6.5-23.2
		c-0.9-0.4-1.8-0.7-2.7-1c0.5,0.1,1.6,0.4,2.1,0.5l0.3,0.1L79.8,123.7z"/>
</g>
<g id="_x23_ab288bff">
	<path class="st31" d="M22.7,124.1c9.5,4.1,18.8,8.6,28.2,12.8l0.5,0.2c-8.4,2.9-16.5,6.7-24.8,10l-0.6,0.3
		C24.6,139.7,23.7,131.9,22.7,124.1z"/>
</g>
<g id="_x23_bf5ea0ff">
	<path class="st32" d="M26.7,147.1c8.3-3.3,16.3-7.1,24.8-10c7.1,3.3,14.1,6.6,21.2,10C57.3,147.2,42,147.2,26.7,147.1z"/>
</g>
</svg>
